<?xml version="1.0" standalone="no"?>
<!DOCTYPE svg PUBLIC "-//W3C//DTD SVG 20010904//EN"
 "http://www.w3.org/TR/2001/REC-SVG-20010904/DTD/svg10.dtd">
<svg version="1.0" xmlns="http://www.w3.org/2000/svg"
 width="1373.000000pt" height="1373.000000pt" viewBox="0 0 1373.000000 1373.000000"
 preserveAspectRatio="xMidYMid meet">
<metadata>
Created by potrace 1.11, written by Peter Selinger 2001-2013
</metadata>
<g transform="translate(0.000000,1373.000000) scale(0.100000,-0.100000)"
fill="#000000" stroke="none">
<path d="M7305 12523 c-917 -44 -1737 -245 -2420 -593 -825 -421 -1469 -1037
-1959 -1873 -452 -772 -721 -1708 -787 -2737 -29 -455 19 -1136 121 -1730 306
-1773 1207 -3062 2649 -3789 666 -337 1376 -526 2171 -581 188 -13 651 -13
855 0 958 61 1816 307 2545 730 513 298 825 600 972 942 258 598 28 1310 -508
1574 -172 85 -386 119 -594 94 -237 -27 -451 -103 -895 -317 -553 -267 -802
-366 -1114 -442 -739 -181 -1521 -83 -2071 258 -629 391 -979 1107 -1106 2266
-21 199 -30 695 -15 890 54 712 207 1317 438 1730 371 665 981 1014 1878 1076
374 26 792 -31 1185 -161 269 -89 473 -182 848 -387 243 -133 384 -198 536
-248 179 -59 252 -70 436 -69 193 2 300 27 465 109 297 147 496 404 593 765
23 85 25 115 26 285 1 208 -8 270 -66 435 -154 440 -554 808 -1273 1170 -815
411 -1719 617 -2660 608 -104 -1 -217 -3 -250 -5z"/>
</g>
</svg>
